<svg width="97" height="91" viewBox="0 0 97 91" fill="none" xmlns="http://www.w3.org/2000/svg">
<path opacity="0.3" d="M95.3834 8.08337V17.7834H1.6167V8.08337C1.6167 4.51192 4.51192 1.6167 8.08337 1.6167H88.9167C92.4882 1.6167 95.3834 4.51192 95.3834 8.08337Z" fill="#7951F9"/>
<path opacity="0.6" d="M88.9167 1.6167H84.0667C87.6381 1.6167 90.5333 4.51192 90.5333 8.08337V17.7834H95.3833V8.08337C95.3833 4.51192 92.4881 1.6167 88.9167 1.6167Z" fill="#8A67FA"/>
<path opacity="0.1" d="M95.3834 17.7832V82.4499C95.3834 86.0213 92.4882 88.9165 88.9167 88.9165H8.08337C4.51192 88.9165 1.6167 86.0213 1.6167 82.4499V17.7832H95.3834Z" fill="#7951F9"/>
<path d="M90.5333 17.7832V82.4499C90.5333 86.0213 87.6381 88.9165 84.0667 88.9165H88.9167C92.4881 88.9165 95.3833 86.0213 95.3833 82.4499V17.7832H90.5333Z" fill="#CAD9FC"/>
<path d="M8.08337 88.9167H12.9334C9.36193 88.9167 6.4667 86.0215 6.4667 82.4501V8.08337C6.4667 4.51192 9.36193 1.6167 12.9334 1.6167H8.08337C4.51192 1.6167 1.6167 4.51192 1.6167 8.08337V82.4501C1.6167 86.0215 4.51192 88.9167 8.08337 88.9167Z" fill="white"/>
<path d="M0 69.5166H3.23333V82.4499H0V69.5166Z" fill="white"/>
<path d="M1.61667 77.6C2.50953 77.6 3.23333 76.8762 3.23333 75.9834C3.23333 75.0905 2.50953 74.3667 1.61667 74.3667C0.723806 74.3667 0 75.0905 0 75.9834C0 76.8762 0.723806 77.6 1.61667 77.6Z" fill="#7951F9"/>
<path d="M8.08333 90.5333H88.9167C93.3788 90.528 96.9947 86.9121 97 82.45V8.08333C96.9947 3.62125 93.3788 0.00534489 88.9167 0H8.08333C3.62125 0.00534489 0.00534489 3.62125 0 8.08333V69.5167C0 70.4095 0.723806 71.1333 1.61667 71.1333C2.50953 71.1333 3.23333 70.4095 3.23333 69.5167V19.4H11.3167C12.2095 19.4 12.9333 18.6762 12.9333 17.7833C12.9333 16.8905 12.2095 16.1667 11.3167 16.1667H3.23333V8.08333C3.23333 5.40475 5.40475 3.23333 8.08333 3.23333H88.9167C91.5952 3.23333 93.7667 5.40475 93.7667 8.08333V16.1667H21.0167C20.1238 16.1667 19.4 16.8905 19.4 17.7833C19.4 18.6762 20.1238 19.4 21.0167 19.4H93.7667V82.45C93.7667 85.1286 91.5952 87.3 88.9167 87.3H8.08333C5.40475 87.3 3.23333 85.1286 3.23333 82.45C3.23333 81.5572 2.50953 80.8333 1.61667 80.8333C0.723806 80.8333 0 81.5572 0 82.45C0.00534489 86.9121 3.62125 90.528 8.08333 90.5333Z" fill="#7951F9"/>
<path d="M9.69992 11.3168C10.5928 11.3168 11.3166 10.593 11.3166 9.70016C11.3166 8.8073 10.5928 8.0835 9.69992 8.0835C8.80706 8.0835 8.08325 8.8073 8.08325 9.70016C8.08325 10.593 8.80706 11.3168 9.69992 11.3168Z" fill="#7951F9"/>
<path d="M16.1667 11.3168C17.0596 11.3168 17.7834 10.593 17.7834 9.70016C17.7834 8.8073 17.0596 8.0835 16.1667 8.0835C15.2739 8.0835 14.55 8.8073 14.55 9.70016C14.55 10.593 15.2739 11.3168 16.1667 11.3168Z" fill="#7951F9"/>
<path d="M22.6333 11.3168C23.5261 11.3168 24.2499 10.593 24.2499 9.70016C24.2499 8.8073 23.5261 8.0835 22.6333 8.0835C21.7404 8.0835 21.0166 8.8073 21.0166 9.70016C21.0166 10.593 21.7404 11.3168 22.6333 11.3168Z" fill="#7951F9"/>
<path d="M63.05 11.3168C63.9428 11.3168 64.6667 10.593 64.6667 9.70016C64.6667 8.8073 63.9428 8.0835 63.05 8.0835H61.4333C60.5405 8.0835 59.8167 8.8073 59.8167 9.70016C59.8167 10.593 60.5405 11.3168 61.4333 11.3168H63.05Z" fill="#7951F9"/>
<path d="M87.2999 11.3168C88.1928 11.3168 88.9166 10.593 88.9166 9.70016C88.9166 8.8073 88.1928 8.0835 87.2999 8.0835H69.5166C68.6237 8.0835 67.8999 8.8073 67.8999 9.70016C67.8999 10.593 68.6237 11.3168 69.5166 11.3168H87.2999Z" fill="#7951F9"/>
<path d="M11.2327 51.7332C11.2379 53.0836 11.8028 54.3714 12.7927 55.2899L31.2357 72.3134C31.5334 72.5921 31.9255 72.748 32.3334 72.7499C32.9994 72.7505 33.5977 72.3426 33.8404 71.7224C34.0831 71.1022 33.9206 70.3966 33.4311 69.9449L14.9882 52.9214C14.6564 52.6154 14.4677 52.1846 14.4677 51.7332C14.4677 51.2818 14.6564 50.851 14.9882 50.5449L24.6736 41.6048C25.3299 40.9985 25.3704 39.9751 24.7642 39.3188C24.1579 38.6626 23.1345 38.622 22.4782 39.2283L12.7927 48.1765C11.8021 49.0945 11.2371 50.3826 11.2327 51.7332V51.7332Z" fill="#7951F9"/>
<path d="M30.1976 36.5061L33.4309 33.5218C34.0872 32.9155 34.1277 31.8921 33.5215 31.2358C32.9152 30.5795 31.8917 30.539 31.2355 31.1453L28.0022 34.1296C27.3459 34.7359 27.3054 35.7594 27.9116 36.4156C28.5179 37.0719 29.5413 37.1124 30.1976 36.5061Z" fill="#7951F9"/>
<path d="M63.5688 69.9453C62.9126 70.5515 62.872 71.575 63.4783 72.2312C64.0845 72.8875 65.108 72.928 65.7642 72.3218L84.2072 55.2902C85.2019 54.372 85.7677 53.0799 85.7677 51.7262C85.7677 50.3725 85.2019 49.0804 84.2072 48.1623L65.7642 31.1453C65.108 30.539 64.0845 30.5795 63.4783 31.2358C62.872 31.8921 62.9126 32.9155 63.5688 33.5218L82.0117 50.5453C82.3435 50.8513 82.5322 51.2821 82.5322 51.7335C82.5322 52.1849 82.3435 52.6157 82.0117 52.9218L63.5688 69.9453Z" fill="#7951F9"/>
<path d="M40.0269 64.1023L59.4269 41.4689C59.967 40.7879 59.872 39.8018 59.2118 39.2364C58.5517 38.6711 57.5626 38.7289 56.9728 39.3672L37.5728 62.0006C37.171 62.4355 37.0391 63.0553 37.229 63.6161C37.4188 64.1769 37.9001 64.5891 38.4835 64.6905C39.0669 64.7918 39.659 64.5662 40.0269 64.1023Z" fill="#7951F9"/>
<path d="M75.9834 80.8335C75.0905 80.8335 74.3667 81.5573 74.3667 82.4502C74.3667 83.343 75.0905 84.0668 75.9834 84.0668H80.8334C81.7262 84.0668 82.45 83.343 82.45 82.4502C82.45 81.5573 81.7262 80.8335 80.8334 80.8335H75.9834Z" fill="#7951F9"/>
<path d="M87.3 84.0668H88.9167C89.8095 84.0668 90.5334 83.343 90.5334 82.4502C90.5334 81.5573 89.8095 80.8335 88.9167 80.8335H87.3C86.4072 80.8335 85.6833 81.5573 85.6833 82.4502C85.6833 83.343 86.4072 84.0668 87.3 84.0668Z" fill="#7951F9"/>
</svg>
