<svg width="99" height="90" viewBox="0 0 99 90" fill="none" xmlns="http://www.w3.org/2000/svg">
<path opacity="0.1" d="M94.5677 51.8409C98.2717 47.6857 98.2717 41.4136 94.5677 37.2583C86.0505 27.5399 69.0622 11.5498 49.4966 11.5498C29.931 11.5498 12.9427 27.5399 4.42547 37.2583C0.721459 41.4136 0.721459 47.6857 4.42547 51.8409C12.9427 61.5594 29.931 77.5494 49.4966 77.5494C69.0622 77.5494 86.0505 61.5594 94.5677 51.8409Z" fill="#7951F9"/>
<path opacity="0.5" d="M94.5679 37.2583C86.0506 27.5399 69.0623 11.5498 49.4967 11.5498C48.6717 11.5498 47.8467 11.5894 47.0217 11.6439C65.5379 12.9061 81.462 27.9524 89.6179 37.2583C93.3219 41.4136 93.3219 47.6857 89.6179 51.8409C81.462 61.1469 65.5379 76.1931 47.0217 77.4554C47.8467 77.5098 48.6717 77.5494 49.4967 77.5494C69.0623 77.5494 86.0506 61.5594 94.5679 51.8409C98.2719 47.6857 98.2719 41.4136 94.5679 37.2583Z" fill="#7951F9"/>
<path opacity="0.2" d="M49.4967 69.2995C63.1656 69.2995 74.2465 58.2186 74.2465 44.5497C74.2465 30.8807 63.1656 19.7998 49.4967 19.7998C35.8277 19.7998 24.7468 30.8807 24.7468 44.5497C24.7468 58.2186 35.8277 69.2995 49.4967 69.2995Z" fill="#7951F9"/>
<path opacity="0.5" d="M49.4967 19.7998C48.6618 19.7998 47.8352 19.8444 47.0217 19.9252C59.6628 21.2026 69.2833 31.8442 69.2833 44.5497C69.2833 57.2551 59.6628 67.8967 47.0217 69.1741C47.8352 69.255 48.6618 69.2995 49.4967 69.2995C63.1657 69.2995 74.2466 58.2186 74.2466 44.5497C74.2466 30.8807 63.1657 19.7998 49.4967 19.7998Z" fill="#7951F9"/>
<path opacity="0.5" d="M49.4967 51.1496C53.1417 51.1496 56.0967 48.1947 56.0967 44.5497C56.0967 40.9046 53.1417 37.9497 49.4967 37.9497C45.8516 37.9497 42.8967 40.9046 42.8967 44.5497C42.8967 48.1947 45.8516 51.1496 49.4967 51.1496Z" fill="#7951F9"/>
<path d="M4.42547 51.8409C16.2443 65.3246 33.2623 78.4057 51.3231 77.5032C51.564 77.4916 51.8016 77.4537 52.0425 77.4372C35.574 76.3251 20.2654 64.267 9.37544 51.8409C5.67143 47.6856 5.67143 41.4135 9.37544 37.2583C20.5657 24.4907 35.6977 12.7625 52.097 11.6603C33.8118 10.4294 16.7327 23.2103 4.42547 37.2583C0.721459 41.4135 0.721459 47.6856 4.42547 51.8409Z" fill="white"/>
<path d="M12.6129 26.6558L14.8073 29.1208C11.5779 32.0096 8.5254 35.0902 5.66639 38.3459L3.19141 36.1713C6.13761 32.8128 9.28381 29.6352 12.6129 26.6558Z" fill="white"/>
<path d="M8.94976 34.0739C8.36028 34.0769 7.814 33.7651 7.51671 33.2561C7.21941 32.747 7.21627 32.1181 7.50846 31.6061C7.80065 31.0941 8.34378 30.7769 8.93326 30.7739H8.94976C9.86103 30.7739 10.5998 31.5127 10.5998 32.4239C10.5998 33.3352 9.86103 34.0739 8.94976 34.0739Z" fill="#7951F9"/>
<path d="M49.4967 79.1995C69.7536 79.1995 87.2072 62.7392 95.8086 52.9283C100.064 48.153 100.064 40.9464 95.8086 36.171C87.2072 26.3602 69.7536 9.8999 49.4967 9.8999C42.5152 10.0521 35.6609 11.7983 29.4576 15.005C27.8851 15.7211 26.4298 16.6368 24.9234 17.4651C23.4846 18.3974 22.0029 19.2702 20.6334 20.2866C17.8347 22.2442 15.1584 24.3712 12.6194 26.6556C12.2876 26.9444 12.0864 27.355 12.0615 27.7943C12.0367 28.2335 12.1903 28.6642 12.4874 28.9886C13.0986 29.6568 14.1311 29.7153 14.8139 29.1206C17.2576 26.9213 19.8336 24.8737 22.5276 22.9893C23.8476 22.0108 25.26 21.1842 26.6311 20.2915C28.0617 19.5094 29.4477 18.6333 30.9211 17.9618C36.6696 14.9807 43.023 13.352 49.4967 13.1999C68.4534 13.1999 85.0952 28.9556 93.327 38.3457C96.4784 41.8814 96.4784 47.218 93.327 50.7537C85.0952 60.1438 68.4534 75.8995 49.4967 75.8995C30.54 75.8995 13.8982 60.1438 5.66636 50.7537C2.51499 47.218 2.51499 41.8814 5.66636 38.3457C6.20562 37.6568 6.1134 36.6667 5.45617 36.0892C4.79894 35.5117 3.80522 35.5476 3.19137 36.171C-1.06379 40.9464 -1.06379 48.153 3.19137 52.9283C11.7862 62.7392 29.2398 79.1995 49.4967 79.1995Z" fill="#7951F9"/>
<path d="M70.1217 58.3337C70.5008 58.5523 70.9513 58.6114 71.3741 58.4978C71.7968 58.3843 72.157 58.1074 72.3756 57.7281C79.1407 45.9905 75.9231 31.0372 64.9288 23.121C53.9346 15.2048 38.7327 16.8956 29.7465 27.0341C20.7603 37.1725 20.9069 52.4674 30.0858 62.4317C39.2647 72.396 54.4962 73.795 65.3367 65.6695C65.8083 65.3159 66.0554 64.7374 65.9848 64.1522C65.9143 63.5669 65.5369 63.0638 64.9948 62.8322C64.4527 62.6006 63.8283 62.6759 63.3567 63.0296C59.3655 66.0424 54.4974 67.665 49.4968 67.6495C39.0489 67.6458 29.9052 60.6273 27.2006 50.5356C24.496 40.4438 28.9044 29.7934 37.9501 24.5653C46.9958 19.3372 58.425 20.8342 65.8191 28.2155C73.2133 35.5969 74.7301 47.0234 69.5178 56.0782C69.2985 56.4573 69.2389 56.908 69.3521 57.3311C69.4654 57.7542 69.7423 58.1149 70.1217 58.3337Z" fill="#7951F9"/>
<path d="M32.4787 38.0127C32.0575 37.8938 31.6063 37.9472 31.2245 38.161C30.8426 38.3749 30.5614 38.7316 30.4426 39.1528C29.9467 40.909 29.6957 42.7251 29.6968 44.5499C29.6968 45.4612 30.4355 46.1999 31.3468 46.1999C32.258 46.1999 32.9968 45.4612 32.9968 44.5499C32.9964 43.0277 33.2052 41.5126 33.6172 40.0471C33.8637 39.171 33.3543 38.2608 32.4787 38.0127Z" fill="#7951F9"/>
<path d="M51.1467 26.3997C51.1467 25.4884 50.408 24.7497 49.4967 24.7497C44.0422 24.7281 38.825 26.9783 35.0972 30.9602C34.4867 31.6248 34.5234 32.6565 35.1795 33.2761C35.8356 33.8957 36.8678 33.8732 37.4963 33.2257C40.6034 29.9078 44.9511 28.0325 49.4967 28.0496C50.408 28.0496 51.1467 27.3109 51.1467 26.3997Z" fill="#7951F9"/>
<path d="M49.4968 52.7997C54.0531 52.7997 57.7467 49.1061 57.7467 44.5498C57.7467 39.9934 54.0531 36.2998 49.4968 36.2998C44.9405 36.2998 41.2468 39.9934 41.2468 44.5498C41.2523 49.1038 44.9427 52.7943 49.4968 52.7997ZM49.4968 39.5998C52.2306 39.5998 54.4467 41.816 54.4467 44.5498C54.4467 47.2835 52.2306 49.4997 49.4968 49.4997C46.763 49.4997 44.5468 47.2835 44.5468 44.5498C44.5468 41.816 46.763 39.5998 49.4968 39.5998Z" fill="#7951F9"/>
<path d="M12.7134 22.6163C13.3576 21.9719 13.3576 20.9275 12.7134 20.2832L9.41345 16.9832C8.76602 16.3579 7.73692 16.3668 7.10046 17.0033C6.464 17.6397 6.45506 18.6689 7.08036 19.3163L10.3803 22.6163C11.0247 23.2604 12.0691 23.2604 12.7134 22.6163Z" fill="#7951F9"/>
<path d="M25.6592 5.12339C25.2674 5.31886 24.9694 5.66204 24.8308 6.07735C24.6921 6.49267 24.7242 6.94605 24.92 7.33768L26.57 10.6377C26.8335 11.1652 27.3585 11.5122 27.9471 11.5478C28.5358 11.5834 29.0987 11.3022 29.4239 10.8102C29.749 10.3182 29.787 9.69016 29.5235 9.16257L27.8735 5.86259C27.678 5.4708 27.3349 5.17277 26.9195 5.03413C26.5042 4.89548 26.0508 4.92759 25.6592 5.12339Z" fill="#7951F9"/>
<path d="M87.4466 23.0997C87.8841 23.0996 88.3037 22.9257 88.6131 22.6163L91.9131 19.3163C92.5384 18.6689 92.5294 17.6397 91.893 17.0033C91.2565 16.3668 90.2274 16.3579 89.58 16.9832L86.28 20.2832C85.8083 20.7551 85.6672 21.4646 85.9225 22.0811C86.1778 22.6976 86.7793 23.0996 87.4466 23.0997Z" fill="#7951F9"/>
<path d="M73.3341 5.12339C72.9425 4.92759 72.4891 4.89548 72.0738 5.03413C71.6585 5.17277 71.3153 5.4708 71.1198 5.86259L69.4698 9.16257C69.2063 9.69016 69.2443 10.3182 69.5695 10.8102C69.8946 11.3022 70.4576 11.5834 71.0462 11.5478C71.6349 11.5122 72.1598 11.1652 72.4233 10.6377L74.0733 7.33768C74.2691 6.94605 74.3012 6.49267 74.1626 6.07735C74.0239 5.66204 73.7259 5.31886 73.3341 5.12339Z" fill="#7951F9"/>
<path d="M47.8467 1.64999V4.94997C47.8467 5.86124 48.5854 6.59996 49.4967 6.59996C50.4079 6.59996 51.1467 5.86124 51.1467 4.94997V1.64999C51.1467 0.738726 50.4079 0 49.4967 0C48.5854 0 47.8467 0.738726 47.8467 1.64999Z" fill="#7951F9"/>
<path d="M8.24685 72.5997C8.68442 72.5996 9.10404 72.4257 9.4134 72.1163L12.7134 68.8163C13.3387 68.1689 13.3297 67.1397 12.6933 66.5033C12.0568 65.8668 11.0277 65.8579 10.3803 66.4832L7.08031 69.7832C6.60857 70.2551 6.46747 70.9646 6.72279 71.5811C6.97812 72.1976 7.5796 72.5996 8.24685 72.5997Z" fill="#7951F9"/>
<path d="M26.3969 84.1494C27.0253 84.1528 27.601 83.799 27.8819 83.2369L29.5319 79.9369C29.9392 79.1213 29.6083 78.13 28.7927 77.7226C27.9771 77.3153 26.9857 77.6463 26.5784 78.4618L24.9284 81.7618C24.6734 82.2721 24.7001 82.8779 24.999 83.3638C25.2978 83.8497 25.8265 84.1468 26.3969 84.1494Z" fill="#7951F9"/>
<path d="M90.7463 72.5997C91.4136 72.5996 92.0151 72.1976 92.2704 71.5811C92.5257 70.9646 92.3846 70.2551 91.9129 69.7832L88.6129 66.4832C87.9655 65.8579 86.9364 65.8668 86.2999 66.5033C85.6635 67.1397 85.6545 68.1689 86.2798 68.8163L89.5798 72.1163C89.8892 72.4257 90.3088 72.5996 90.7463 72.5997Z" fill="#7951F9"/>
<path d="M72.5966 84.1494C73.1682 84.149 73.699 83.8529 73.9994 83.3666C74.2999 82.8803 74.3272 82.2732 74.0717 81.7618L72.4217 78.4618C72.0144 77.6463 71.023 77.3153 70.2074 77.7226C69.3919 78.13 69.0609 79.1213 69.4682 79.9369L71.1182 83.2369C71.398 83.7969 71.9706 84.1503 72.5966 84.1494Z" fill="#7951F9"/>
<path d="M51.1467 87.4495V84.1495C51.1467 83.2382 50.4079 82.4995 49.4967 82.4995C48.5854 82.4995 47.8467 83.2382 47.8467 84.1495V87.4495C47.8467 88.3607 48.5854 89.0995 49.4967 89.0995C50.4079 89.0995 51.1467 88.3607 51.1467 87.4495Z" fill="#7951F9"/>
</svg>
