<svg width="93" height="91" viewBox="0 0 93 91" fill="none" xmlns="http://www.w3.org/2000/svg">
<path opacity="0.3" d="M45.5081 89.1343C44.9493 88.9468 44.4518 88.617 44.0666 88.1788L2.27855 39.8427C1.81167 39.3045 1.55371 38.6224 1.55005 37.9165H18.0266L45.5081 89.1343Z" fill="#7951F9"/>
<path d="M46.1434 89.2708C45.9282 89.2415 45.7158 89.1958 45.5079 89.1343L18.0264 37.9165H35.4174L46.1434 89.2708Z" fill="#E8EDFC"/>
<path opacity="0.3" d="M91.4499 37.9165C91.4463 38.6224 91.1883 39.3045 90.7214 39.8427L48.9334 88.1788C48.5482 88.617 48.0507 88.9468 47.4919 89.1343L74.9734 37.9165H91.4499Z" fill="#7951F9"/>
<path d="M70.091 12.4215L66.0145 20.7328L57.5825 37.9166L46.5 12.1333H68.7425C69.2078 12.1351 69.6673 12.2333 70.091 12.4215Z" fill="#E8EDFC"/>
<path d="M46.4999 12.1333L35.4174 37.9166L26.9854 20.7328L22.9089 12.4215C23.3326 12.2333 23.7922 12.1351 24.2574 12.1333H46.4999Z" fill="#E8EDFC"/>
<path opacity="0.2" d="M57.5825 37.9166H35.4175L46.5 12.1333L57.5825 37.9166Z" fill="#7951F9"/>
<path opacity="0.3" d="M57.5825 37.9165L46.872 89.2708C46.6294 89.286 46.3861 89.286 46.1435 89.2708L35.4175 37.9165H57.5825Z" fill="#7951F9"/>
<path opacity="0.2" d="M90.7215 35.9752L71.176 13.2404C70.8792 12.8937 70.509 12.6143 70.091 12.4214L66.0145 20.7327L57.5825 37.9166H91.45C91.4491 37.2056 91.191 36.5179 90.7215 35.9752Z" fill="#7951F9"/>
<path opacity="0.2" d="M22.9091 12.4214C22.491 12.6143 22.1208 12.8937 21.8241 13.2404L2.27855 35.9752C1.80906 36.5179 1.55099 37.2056 1.55005 37.9166H35.4176L26.9856 20.7327L22.9091 12.4214Z" fill="#7951F9"/>
<path d="M74.9736 37.9165L47.4921 89.1343C47.2894 89.1958 47.0821 89.2415 46.8721 89.2708L57.5826 37.9165H74.9736Z" fill="#E8EDFC"/>
<path d="M2.2785 39.8428L44.0665 88.179C44.9038 89.149 46.2578 89.5267 47.492 89.1345C47.8609 89.0101 47.8594 89.1982 48.7863 88.2381C48.7646 88.2154 48.7367 88.2033 48.7165 88.179L6.9285 39.8428C5.95756 38.7287 5.95756 37.0894 6.9285 35.9753L26.474 13.2405C27.0771 12.5364 27.9686 12.1307 28.9075 12.1333H24.2575C23.3186 12.1307 22.4271 12.5364 21.824 13.2405L2.2785 35.9753C1.30756 37.0894 1.30756 38.7287 2.2785 39.8428Z" fill="white"/>
<path d="M1.0769 34.9912L9.0501 25.7092L11.4216 27.6596L3.4484 36.9416L1.0769 34.9912Z" fill="white"/>
<path d="M7.45408 32.3139C8.00488 31.6727 7.9202 30.716 7.26493 30.177C6.60967 29.638 5.63194 29.7209 5.0811 30.362C4.53026 31.0032 4.61489 31.9599 5.27013 32.4989C5.58481 32.7578 5.9917 32.8837 6.40127 32.849C6.81085 32.8143 7.18956 32.6218 7.45408 32.3139Z" fill="#7951F9"/>
<path d="M3.27516 34.8212C2.96013 34.5605 2.55185 34.4334 2.14076 34.4681C1.72967 34.5028 1.34969 34.6965 1.08501 35.0062C-0.362951 36.6895 -0.356398 39.1499 1.10051 40.8257L42.8808 89.1619C43.7848 90.1987 45.1078 90.796 46.5008 90.796C47.8937 90.796 49.2167 90.1987 50.1208 89.1619L91.8995 40.8257C93.3546 39.1484 93.3586 36.688 91.9088 35.0062L72.368 12.2562C71.4655 11.2119 70.1371 10.6117 68.7394 10.6167H24.2544C22.8557 10.6132 21.5272 11.2157 20.6259 12.2623L9.07061 25.7197C8.54463 26.3627 8.63928 27.299 9.28381 27.8287C9.92834 28.3585 10.8872 28.2881 11.4437 27.6701L22.4099 14.9059L32.9608 36.4001H20.5515L24.1475 29.5068C24.3994 29.0243 24.3692 28.4469 24.0681 27.9921C23.767 27.5374 23.2408 27.2743 22.6878 27.302C22.1348 27.3298 21.6389 27.6441 21.3869 28.1266L17.0702 36.4001H3.76341C3.93294 35.8256 3.74174 35.2073 3.27516 34.8212ZM3.95716 39.4334H17.0841L32.471 68.112C32.7208 68.6051 33.224 68.927 33.7858 68.9532C34.3476 68.9794 34.8798 68.7058 35.1765 68.2383C35.4731 67.7707 35.4877 67.1826 35.2145 66.7015L20.5856 39.4334H34.1589L43.7689 85.487L3.95716 39.4334ZM47.754 87.2084C47.6367 87.3279 47.4987 87.426 47.3463 87.4981L37.3225 39.4334H55.676L48.1461 75.5301C48.0203 76.0667 48.2016 76.6279 48.6197 76.9963C49.0378 77.3647 49.6272 77.4824 50.1594 77.3039C50.6917 77.1254 51.0833 76.6787 51.1826 76.1367L58.8411 39.4334H72.4145L57.7856 66.7015C57.5123 67.1826 57.5269 67.7707 57.8235 68.2383C58.1202 68.7058 58.6524 68.9794 59.2142 68.9532C59.776 68.927 60.2792 68.6051 60.5291 68.112L75.9175 39.4334H89.0429L47.754 87.2084ZM89.0553 36.4001H60.0393L70.5901 14.9074L89.0553 36.4001ZM57.6693 34.2206L48.8328 13.6501H67.7691L57.6693 34.2206ZM44.175 13.6501L35.34 34.2206L25.2309 13.6501H44.175ZM46.5 16.0479L55.242 36.4001H37.758L46.5 16.0479Z" fill="#7951F9"/>
<path d="M6.19995 89.4835C6.19995 90.3211 6.89391 91.0001 7.74995 91.0001H10.85C11.706 91.0001 12.4 90.3211 12.4 89.4835C12.4 88.6458 11.706 87.9668 10.85 87.9668H7.74995C6.89391 87.9668 6.19995 88.6458 6.19995 89.4835Z" fill="#7951F9"/>
<path d="M17.05 91.0001H31C31.856 91.0001 32.55 90.3211 32.55 89.4835C32.55 88.6458 31.856 87.9668 31 87.9668H17.05C16.194 87.9668 15.5 88.6458 15.5 89.4835C15.5 90.3211 16.194 91.0001 17.05 91.0001Z" fill="#7951F9"/>
<path d="M82.1501 87.9668C81.2941 87.9668 80.6001 88.6458 80.6001 89.4835C80.6001 90.3211 81.2941 91.0001 82.1501 91.0001H85.2501C86.1061 91.0001 86.8001 90.3211 86.8001 89.4835C86.8001 88.6458 86.1061 87.9668 85.2501 87.9668H82.1501Z" fill="#7951F9"/>
<path d="M62 87.9668C61.1439 87.9668 60.45 88.6458 60.45 89.4835C60.45 90.3211 61.1439 91.0001 62 91.0001H75.95C76.806 91.0001 77.5 90.3211 77.5 89.4835C77.5 88.6458 76.806 87.9668 75.95 87.9668H62Z" fill="#7951F9"/>
<path d="M83.6999 0C82.8439 0 82.1499 0.679035 82.1499 1.51667V4.55C82.1499 5.38763 82.8439 6.06667 83.6999 6.06667C84.5559 6.06667 85.2499 5.38763 85.2499 4.55V1.51667C85.2499 0.679035 84.5559 0 83.6999 0Z" fill="#7951F9"/>
<path d="M83.6999 12.1333C82.8439 12.1333 82.1499 12.8123 82.1499 13.65V16.6833C82.1499 17.5209 82.8439 18.2 83.6999 18.2C84.5559 18.2 85.2499 17.5209 85.2499 16.6833V13.65C85.2499 12.8123 84.5559 12.1333 83.6999 12.1333Z" fill="#7951F9"/>
<path d="M79.0499 7.5835H75.9499C75.0939 7.5835 74.3999 8.26253 74.3999 9.10016C74.3999 9.93779 75.0939 10.6168 75.9499 10.6168H79.0499C79.906 10.6168 80.5999 9.93779 80.5999 9.10016C80.5999 8.26253 79.906 7.5835 79.0499 7.5835Z" fill="#7951F9"/>
<path d="M91.45 7.5835H88.35C87.494 7.5835 86.8 8.26253 86.8 9.10016C86.8 9.93779 87.494 10.6168 88.35 10.6168H91.45C92.3061 10.6168 93 9.93779 93 9.10016C93 8.26253 92.3061 7.5835 91.45 7.5835Z" fill="#7951F9"/>
<path d="M9.3 63.7002C8.44396 63.7002 7.75 64.3792 7.75 65.2169V68.2502C7.75 69.0878 8.44396 69.7669 9.3 69.7669C10.156 69.7669 10.85 69.0878 10.85 68.2502V65.2169C10.85 64.3792 10.156 63.7002 9.3 63.7002Z" fill="#7951F9"/>
<path d="M9.3 75.8335C8.44396 75.8335 7.75 76.5125 7.75 77.3502V80.3835C7.75 81.2211 8.44396 81.9002 9.3 81.9002C10.156 81.9002 10.85 81.2211 10.85 80.3835V77.3502C10.85 76.5125 10.156 75.8335 9.3 75.8335Z" fill="#7951F9"/>
<path d="M4.65 71.2832H1.55C0.693959 71.2832 0 71.9622 0 72.7999C0 73.6375 0.693959 74.3165 1.55 74.3165H4.65C5.50604 74.3165 6.2 73.6375 6.2 72.7999C6.2 71.9622 5.50604 71.2832 4.65 71.2832Z" fill="#7951F9"/>
<path d="M17.0499 71.2832H13.9499C13.0939 71.2832 12.3999 71.9622 12.3999 72.7999C12.3999 73.6375 13.0939 74.3165 13.9499 74.3165H17.0499C17.9059 74.3165 18.5999 73.6375 18.5999 72.7999C18.5999 71.9622 17.9059 71.2832 17.0499 71.2832Z" fill="#7951F9"/>
</svg>
